<?xml version="1.0" encoding="UTF-8" standalone="no"?>
<!DOCTYPE svg PUBLIC "-//W3C//DTD SVG 1.1//EN" "http://www.w3.org/Graphics/SVG/1.1/DTD/svg11.dtd">
<!-- Created with Vectornator (http://vectornator.io/) -->
<svg height="1024.0px" stroke-miterlimit="10" style="fill-rule:nonzero;clip-rule:evenodd;stroke-linecap:round;stroke-linejoin:round;" version="1.1" viewBox="0 0 1024 1024" width="1024.0px" xml:space="preserve" xmlns="http://www.w3.org/2000/svg" xmlns:xlink="http://www.w3.org/1999/xlink">
<defs/>
<g id="Layer-1-copy-copy">
<g opacity="1">
<path d="M300.833 434.651C300.833 434.651 343.87 401.031 397.569 404.079C444.447 406.739 469.712 430.928 500.94 451.758C532.169 472.589 584.697 493.671 644.371 491.111C704.045 488.551 732.829 469.673 732.829 469.673" fill="none" opacity="1" stroke="#96d7e0" stroke-linecap="round" stroke-linejoin="round" stroke-width="7.5"/>
<path d="M295.653 453.763C295.653 453.763 326.351 423.32 373.518 429.418C430.209 436.747 454.619 468.334 497.471 500.181C540.322 532.028 607.986 512.577 650.878 505.173C693.77 497.768 735.451 504.97 735.583 505.173" fill="none" opacity="1" stroke="#7dc9d4" stroke-linecap="round" stroke-linejoin="round" stroke-width="7.5"/>
<path d="M291.362 473.566C291.362 473.566 316.961 460.174 353.008 465.126C414.451 473.566 434.488 516.882 486.566 534.259C538.644 551.636 607.054 527.244 648.575 521.891C665.974 519.648 707.425 518.492 734.52 527.244" fill="none" opacity="1" stroke="#68b0bf" stroke-linecap="round" stroke-linejoin="round" stroke-width="7.5"/>
<path d="M288.416 527.634C288.416 527.634 320.932 502.863 358.434 508.117C418.849 516.58 437.795 564.956 498.744 564.956C559.693 564.956 614.581 539.503 645.761 535.537C676.94 531.572 707.94 537.669 732.758 549.546" fill="none" opacity="1" stroke="#4b8ea3" stroke-linecap="round" stroke-linejoin="round" stroke-width="7.5"/>
<path d="M302.591 589.681C330.897 575.406 362.844 571.358 403.889 581.873C507.448 608.403 572.266 561.678 633.162 549.855C645.791 547.403 663.062 546.384 675.739 548.092C706.464 552.23 728.954 565.77 728.954 565.77" fill="none" opacity="1" stroke="#2f6d87" stroke-linecap="round" stroke-linejoin="round" stroke-width="7.5"/>
<path d="M333.443 648.706C333.443 648.706 386.404 669.293 431.937 662.436C529.412 647.756 548.918 588.925 608.689 567.461C622.924 562.349 639.396 558.848 655.899 557.817C699.679 555.08 726.881 578.028 726.881 578.028" fill="none" opacity="1" stroke="#215c78" stroke-linecap="round" stroke-linejoin="round" stroke-width="7.5"/>
<path d="M379.594 694.058C379.594 694.058 437.775 705.472 484.215 688.63C556.905 662.266 563.186 603.8 613.243 579.775C672.496 551.337 723.624 586.277 723.624 586.277" fill="none" opacity="1" stroke="#124b6b" stroke-linecap="round" stroke-linejoin="round" stroke-width="7.5"/>
<path d="M287 512C287 498.277 288.229 484.84 290.582 471.795C309.537 366.715 401.459 287 512 287C636.264 287 737 387.736 737 512C737 636.264 636.264 737 512 737C387.736 737 287 636.264 287 512Z" fill="none" opacity="1" stroke="#4b8ea3" stroke-linecap="butt" stroke-linejoin="round" stroke-width="10"/>
</g>
</g>
</svg>
